<svg xmlns="http://www.w3.org/2000/svg" viewBox="0 0 16 16" fill="none" shape-rendering="crispEdges"><metadata xmlns:rdf="http://www.w3.org/1999/02/22-rdf-syntax-ns#" xmlns:xsi="http://www.w3.org/2001/XMLSchema-instance" xmlns:dc="http://purl.org/dc/elements/1.1/" xmlns:dcterms="http://purl.org/dc/terms/"><rdf:RDF><rdf:Description><dc:title>Pixel Art</dc:title><dc:creator>DiceBear</dc:creator><dc:source xsi:type="dcterms:URI">https://www.figma.com/community/file/1198754108850888330</dc:source><dcterms:license xsi:type="dcterms:URI">https://creativecommons.org/publicdomain/zero/1.0/</dcterms:license><dc:rights>„Pixel Art” (https://www.figma.com/community/file/1198754108850888330) by „DiceBear”, licensed under „CC0 1.0” (https://creativecommons.org/publicdomain/zero/1.0/)</dc:rights></rdf:Description></rdf:RDF></metadata><mask id="viewboxMask"><rect width="16" height="16" rx="1.92" ry="1.92" x="0" y="0" fill="#fff" /></mask><g mask="url(#viewboxMask)"><rect fill="url(#backgroundLinear)" width="16" height="16" x="0" y="0" /><defs><linearGradient id="backgroundLinear" gradientTransform="rotate(172 0.5 0.5)"><stop stop-color="#cd7f32"/><stop offset="1" stop-color="#cd7f32"/></linearGradient></defs><path d="M4 2h8v1h1v3h1v2h-1v3h-1v1H9v1h4v1h1v2H2v-2h1v-1h4v-1H4v-1H3V8H2V6h1V3h1V2Z" fill="#b68655"/><path d="M4 2h8v1h1v3h1v2h-1v3h-1v1H4v-1H3V8H2V6h1V3h1V2Z" fill="#fff" fill-opacity=".1"/><path d="M6 13H4v3h2v-3ZM12 13h-2v3h2v-3Z" fill="#5bc0de"/><path fill="#fff" fill-opacity=".2" d="M5 13h1v3H5zM10 13h1v3h-1z"/><path fill="#fff" d="M4 5h3v2H4zM9 5h3v2H9z"/><path d="M11 5h-1v1H9v1h3V6h-1V5Z" fill="#588387"/><path fill="#fff" fill-opacity=".5" d="M9 6h1v1H9zM10 5h1v1h-1zM11 6h1v1h-1z"/><path d="M6 5H5v1H4v1h3V6H6V5Z" fill="#588387"/><path fill="#fff" fill-opacity=".5" d="M4 6h1v1H4zM5 5h1v1H5zM6 6h1v1H6z"/><path d="M9 9v1H7v1H6v-1h1V9h2Z" fill="#e35d6a"/><path d="M11 2H5v1h1v1h4V3h1V2ZM3 3h1v2H3V3ZM13 3h-1v2h1V3Z" fill="#83623b"/></g></svg>